<svg xmlns="http://www.w3.org/2000/svg" viewBox="0 0 620 150" role="img" aria-labelledby="title desc">
  <title id="title">Edu Pedia Overseas</title>
  <desc id="desc">Clean horizontal EPO Edu Pedia Overseas logo</desc>
  <defs>
    <linearGradient id="blue" x1="0" x2="1" y1="0" y2="1">
      <stop offset="0" stop-color="#179bff"/>
      <stop offset="0.55" stop-color="#0866e8"/>
      <stop offset="1" stop-color="#04348f"/>
    </linearGradient>
    <linearGradient id="ink" x1="0" x2="1" y1="0" y2="1">
      <stop offset="0" stop-color="#26364c"/>
      <stop offset="1" stop-color="#101827"/>
    </linearGradient>
  </defs>

  <g transform="translate(10 16)">
    <path fill="url(#ink)" d="M0 0h104L91 22H33v25h54L73 70H33v26h65l-14 23H0z"/>
    <path fill="url(#blue)" d="M132 0h78c33 0 56 21 56 50 0 30-23 51-56 51h-43v18h-33V72h72c16 0 26-8 26-22s-10-22-26-22h-87z"/>
    <path fill="url(#ink)" d="M346-1c48 0 82 29 82 64 0 36-34 65-82 65-47 0-81-29-81-65 0-35 34-64 81-64Zm0 29c-27 0-46 15-46 35 0 21 19 36 46 36 28 0 47-15 47-36 0-20-19-35-47-35Z"/>
    <circle cx="344" cy="82" r="22" fill="url(#blue)"/>
    <path d="M323 82h42M344 61v42" stroke="#fff" stroke-width="4" stroke-linecap="round"/>
    <ellipse cx="344" cy="82" rx="10" ry="21" fill="none" stroke="#fff" stroke-width="4"/>
    <ellipse cx="344" cy="82" rx="20" ry="8" fill="none" stroke="#fff" stroke-width="4"/>
    <path d="M277 102c47 29 107 22 154-17-32 51-113 61-164 30 2-6 5-10 10-13Z" fill="url(#blue)"/>
  </g>

  <g transform="translate(458 40)" font-family="Inter, Arial, sans-serif">
    <text x="0" y="28" font-size="24" font-weight="900" fill="#111b2d" letter-spacing="2">EDU PEDIA</text>
    <text x="0" y="60" font-size="22" font-weight="900" fill="#0866e8" letter-spacing="4">OVERSEAS</text>
    <path d="M0 75h126" stroke="#0866e8" stroke-width="4" stroke-linecap="round"/>
  </g>
</svg>
